<svg width="333" height="124" viewBox="0 0 333 124" fill="none" xmlns="http://www.w3.org/2000/svg">
<g filter="url(#filter0_d)">
<rect x="35" y="20" width="263" height="54" rx="10" fill="#1E1E1E"/>
</g>
<path d="M124.5 46L126.57 40.625H129.102L125.125 50.0078L124.805 50.625C124.216 51.651 123.315 52.1641 122.102 52.1641L121.281 52.1328L121.258 50.25C121.383 50.2708 121.586 50.2812 121.867 50.2812C122.195 50.2812 122.458 50.224 122.656 50.1094C122.859 49.9948 123.029 49.7839 123.164 49.4766L123.453 48.7344L119.461 40.625H121.984L124.5 46ZM134.305 46.0391C134.305 45.7422 134.206 45.513 134.008 45.3516C133.815 45.1849 133.539 45.1016 133.18 45.1016C132.81 45.1016 132.508 45.1797 132.273 45.3359C132.044 45.487 131.93 45.7031 131.93 45.9844H129.672C129.672 45.2188 129.99 44.5964 130.625 44.1172C131.26 43.638 132.073 43.3984 133.062 43.3984C134.151 43.3984 135.005 43.612 135.625 44.0391C136.25 44.4661 136.562 45.0729 136.562 45.8594C136.562 46.2344 136.448 46.5807 136.219 46.8984C135.995 47.2109 135.677 47.4609 135.266 47.6484C136.229 47.987 136.711 48.6406 136.711 49.6094C136.711 50.3854 136.378 51.0052 135.711 51.4688C135.049 51.9271 134.167 52.1562 133.062 52.1562C132.036 52.1562 131.193 51.9167 130.531 51.4375C129.87 50.9583 129.539 50.3125 129.539 49.5H131.797C131.797 49.7865 131.924 50.0182 132.18 50.1953C132.435 50.3724 132.768 50.4609 133.18 50.4609C133.581 50.4609 133.893 50.3672 134.117 50.1797C134.341 49.9922 134.453 49.7474 134.453 49.4453C134.453 49.0755 134.346 48.8125 134.133 48.6562C133.919 48.4948 133.599 48.4141 133.172 48.4141H131.945V46.9453H133.25C133.953 46.9245 134.305 46.6224 134.305 46.0391ZM145.414 52H143.148V48.75H140.344V52H138.086V43.5469H140.344V46.9375H143.148V43.5469H145.414V52ZM152.062 52C151.958 51.7969 151.883 51.5443 151.836 51.2422C151.289 51.8516 150.578 52.1562 149.703 52.1562C148.875 52.1562 148.188 51.9167 147.641 51.4375C147.099 50.9583 146.828 50.3542 146.828 49.625C146.828 48.7292 147.159 48.0417 147.82 47.5625C148.487 47.0833 149.448 46.8411 150.703 46.8359H151.742V46.3516C151.742 45.9609 151.641 45.6484 151.438 45.4141C151.24 45.1797 150.924 45.0625 150.492 45.0625C150.112 45.0625 149.812 45.1536 149.594 45.3359C149.38 45.5182 149.273 45.7682 149.273 46.0859H147.016C147.016 45.5964 147.167 45.1432 147.469 44.7266C147.771 44.3099 148.198 43.9844 148.75 43.75C149.302 43.5104 149.922 43.3906 150.609 43.3906C151.651 43.3906 152.477 43.6536 153.086 44.1797C153.701 44.7005 154.008 45.4349 154.008 46.3828V50.0469C154.013 50.849 154.125 51.4557 154.344 51.8672V52H152.062ZM150.195 50.4297C150.529 50.4297 150.836 50.3568 151.117 50.2109C151.398 50.0599 151.607 49.8594 151.742 49.6094V48.1562H150.898C149.768 48.1562 149.167 48.5469 149.094 49.3281L149.086 49.4609C149.086 49.7422 149.185 49.974 149.383 50.1562C149.581 50.3385 149.852 50.4297 150.195 50.4297ZM162.633 45.3594H159.922V52H157.656V45.3594H154.992V43.5469H162.633V45.3594ZM166.188 46.0234H167.805C168.534 46.0234 169.174 46.1458 169.727 46.3906C170.279 46.6354 170.701 46.987 170.992 47.4453C171.289 47.8984 171.438 48.4271 171.438 49.0312C171.438 49.9219 171.107 50.6406 170.445 51.1875C169.789 51.7292 168.893 52 167.758 52H163.922V43.5469H166.188V46.0234ZM166.188 47.8359V50.1953H167.789C168.237 50.1953 168.581 50.0911 168.82 49.8828C169.06 49.6745 169.18 49.3906 169.18 49.0312C169.18 48.6667 169.062 48.3776 168.828 48.1641C168.594 47.9453 168.247 47.8359 167.789 47.8359H166.188ZM180.891 44.0156C181.974 44.0156 182.839 44.375 183.484 45.0938C184.13 45.8125 184.453 46.7891 184.453 48.0234V48.1328C184.453 49.3516 184.094 50.3281 183.375 51.0625C182.656 51.7969 181.69 52.1641 180.477 52.1641C179.258 52.1641 178.286 51.7682 177.562 50.9766C176.844 50.1797 176.484 49.099 176.484 47.7344V47.3594C176.495 45.4583 176.815 43.9714 177.445 42.8984C178.081 41.8203 179.034 41.1406 180.305 40.8594C180.971 40.7135 181.401 40.5703 181.594 40.4297C181.786 40.2839 181.883 40.0833 181.883 39.8281H183.711C183.711 40.6458 183.49 41.2604 183.047 41.6719C182.609 42.0833 181.828 42.401 180.703 42.625C180.036 42.7604 179.51 43.0234 179.125 43.4141C178.74 43.8047 178.479 44.3542 178.344 45.0625C179.062 44.3646 179.911 44.0156 180.891 44.0156ZM180.461 45.8438C179.924 45.8438 179.503 46.0234 179.195 46.3828C178.893 46.7422 178.742 47.3255 178.742 48.1328C178.742 48.8516 178.891 49.401 179.188 49.7812C179.484 50.1562 179.914 50.3438 180.477 50.3438C181.023 50.3438 181.445 50.1589 181.742 49.7891C182.039 49.4193 182.19 48.875 182.195 48.1562V47.9688C182.195 47.276 182.042 46.75 181.734 46.3906C181.432 46.026 181.008 45.8438 180.461 45.8438ZM185.453 47.6953C185.453 46.8568 185.615 46.1094 185.938 45.4531C186.26 44.7969 186.724 44.2891 187.328 43.9297C187.938 43.5703 188.643 43.3906 189.445 43.3906C190.586 43.3906 191.516 43.7396 192.234 44.4375C192.958 45.1354 193.362 46.0833 193.445 47.2812L193.461 47.8594C193.461 49.1562 193.099 50.1979 192.375 50.9844C191.651 51.7656 190.68 52.1562 189.461 52.1562C188.242 52.1562 187.268 51.7656 186.539 50.9844C185.815 50.2031 185.453 49.1406 185.453 47.7969V47.6953ZM187.711 47.8594C187.711 48.6615 187.862 49.276 188.164 49.7031C188.466 50.125 188.898 50.3359 189.461 50.3359C190.008 50.3359 190.435 50.1276 190.742 49.7109C191.049 49.2891 191.203 48.6172 191.203 47.6953C191.203 46.9089 191.049 46.2995 190.742 45.8672C190.435 45.4349 190.003 45.2188 189.445 45.2188C188.893 45.2188 188.466 45.4349 188.164 45.8672C187.862 46.2943 187.711 46.9583 187.711 47.8594ZM202.078 43.5469V52H199.82V45.375H197.828L197.688 47.9844C197.599 49.375 197.326 50.388 196.867 51.0234C196.409 51.6589 195.727 51.9844 194.82 52H194.055L194.031 50.1641L194.312 50.1406C194.719 50.1094 195.016 49.8698 195.203 49.4219C195.391 48.974 195.508 48.2109 195.555 47.1328L195.711 43.5469H202.078ZM206.234 46.0234H207.852C208.581 46.0234 209.221 46.1458 209.773 46.3906C210.326 46.6354 210.747 46.987 211.039 47.4453C211.336 47.8984 211.484 48.4271 211.484 49.0312C211.484 49.9219 211.154 50.6406 210.492 51.1875C209.836 51.7292 208.94 52 207.805 52H203.969V43.5469H206.234V46.0234ZM206.234 47.8359V50.1953H207.836C208.284 50.1953 208.628 50.0911 208.867 49.8828C209.107 49.6745 209.227 49.3906 209.227 49.0312C209.227 48.6667 209.109 48.3776 208.875 48.1641C208.641 47.9453 208.294 47.8359 207.836 47.8359H206.234ZM215.016 43.5469V50.1797H217.336V43.5469H219.602V50.1797H221.922V43.5469H224.18V52H212.758V43.5469H215.016ZM229.883 52.1562C228.643 52.1562 227.633 51.776 226.852 51.0156C226.076 50.2552 225.688 49.2422 225.688 47.9766V47.7578C225.688 46.9089 225.852 46.151 226.18 45.4844C226.508 44.8125 226.971 44.2969 227.57 43.9375C228.174 43.5729 228.862 43.3906 229.633 43.3906C230.789 43.3906 231.698 43.7552 232.359 44.4844C233.026 45.2135 233.359 46.2474 233.359 47.5859V48.5078H227.977C228.049 49.0599 228.268 49.5026 228.633 49.8359C229.003 50.1693 229.469 50.3359 230.031 50.3359C230.901 50.3359 231.581 50.0208 232.07 49.3906L233.18 50.6328C232.841 51.112 232.383 51.487 231.805 51.7578C231.227 52.0234 230.586 52.1562 229.883 52.1562ZM229.625 45.2188C229.177 45.2188 228.812 45.3698 228.531 45.6719C228.255 45.974 228.078 46.4062 228 46.9688H231.141V46.7891C231.13 46.2891 230.995 45.9036 230.734 45.6328C230.474 45.3568 230.104 45.2188 229.625 45.2188Z" fill="white"/>
<g filter="url(#filter1_d)">
<circle cx="96" cy="46" r="4" fill="#FFD159"/>
</g>
<defs>
<filter id="filter0_d" x="0" y="0" width="333" height="124" filterUnits="userSpaceOnUse" color-interpolation-filters="sRGB">
<feFlood flood-opacity="0" result="BackgroundImageFix"/>
<feColorMatrix in="SourceAlpha" type="matrix" values="0 0 0 0 0 0 0 0 0 0 0 0 0 0 0 0 0 0 127 0"/>
<feOffset dy="15"/>
<feGaussianBlur stdDeviation="17.5"/>
<feColorMatrix type="matrix" values="0 0 0 0 0 0 0 0 0 0 0 0 0 0 0 0 0 0 0.3 0"/>
<feBlend mode="normal" in2="BackgroundImageFix" result="effect1_dropShadow"/>
<feBlend mode="normal" in="SourceGraphic" in2="effect1_dropShadow" result="shape"/>
</filter>
<filter id="filter1_d" x="73" y="23" width="46" height="46" filterUnits="userSpaceOnUse" color-interpolation-filters="sRGB">
<feFlood flood-opacity="0" result="BackgroundImageFix"/>
<feColorMatrix in="SourceAlpha" type="matrix" values="0 0 0 0 0 0 0 0 0 0 0 0 0 0 0 0 0 0 127 0"/>
<feMorphology radius="4" operator="dilate" in="SourceAlpha" result="effect1_dropShadow"/>
<feOffset/>
<feGaussianBlur stdDeviation="7.5"/>
<feColorMatrix type="matrix" values="0 0 0 0 1 0 0 0 0 0.232333 0 0 0 0 0.183333 0 0 0 1 0"/>
<feBlend mode="normal" in2="BackgroundImageFix" result="effect1_dropShadow"/>
<feBlend mode="normal" in="SourceGraphic" in2="effect1_dropShadow" result="shape"/>
</filter>
</defs>
</svg>
